<svg width="1439" height="522" viewBox="0 0 1439 522" fill="none" xmlns="http://www.w3.org/2000/svg">
<rect width="1439" height="522" fill="#F7E033" fill-opacity="0.4"/>
<circle opacity="0.4" cx="1157.5" cy="236.5" r="172.5" fill="#3F3F3F"/>
<g clip-path="url(#clip0)">
<path d="M1171.21 323.683H1158.48C1147.71 323.683 1138.95 314.812 1138.95 303.898V275.243C1138.95 264.329 1147.71 255.458 1158.48 255.458H1171.21C1181.97 255.458 1190.73 264.329 1190.73 275.243V303.898C1190.73 314.812 1181.97 323.683 1171.21 323.683Z" fill="#EDBB98"/>
<path d="M1190.73 303.468V303.952C1190.73 314.866 1181.97 323.737 1171.21 323.737H1158.47C1147.71 323.737 1138.95 314.866 1138.95 303.952V303.468C1098.27 312.393 1066.65 339.812 1058.16 373.306C1058.06 373.79 1112.01 373.306 1164.84 373.306C1217.67 373.306 1271.62 373.79 1271.52 373.306C1263.03 339.812 1231.36 312.393 1190.73 303.468Z" fill="#9E005D"/>
<path d="M1116.99 247.178C1116.99 247.178 1123.15 282.124 1105.22 289.597C1105.22 289.597 1055.67 329.597 1080.18 360.188C1080.18 360.188 1092.43 344.973 1106.6 338.468C1106.6 338.468 1133.6 323.683 1139.01 303.898L1144.63 271.856L1116.99 247.178Z" fill="#3F2820"/>
<path d="M1226.5 240.359C1234.55 242.131 1243.03 234.418 1245.45 223.131C1247.87 211.844 1243.32 201.257 1235.27 199.485C1227.23 197.713 1218.74 205.426 1216.32 216.713C1213.9 228 1218.46 238.587 1226.5 240.359Z" fill="#F4C5A2"/>
<path d="M1094.43 200.842C1086.38 202.614 1081.82 213.201 1084.24 224.488C1086.67 235.775 1095.15 243.488 1103.19 241.716C1111.24 239.943 1115.8 229.357 1113.38 218.07C1110.96 206.783 1102.47 199.07 1094.43 200.842Z" fill="#F4C5A2"/>
<path d="M1165 294.436C1200.39 294.436 1229.08 260.497 1229.08 218.63C1229.08 176.764 1200.39 142.825 1165 142.825C1129.61 142.825 1100.92 176.764 1100.92 218.63C1100.92 260.497 1129.61 294.436 1165 294.436Z" fill="#F4C5A2"/>
<path d="M1191.2 232.663C1180.01 232.663 1170.94 223.469 1170.94 212.125C1170.94 200.781 1180.01 191.588 1191.2 191.588C1202.4 191.588 1211.47 200.781 1211.47 212.125C1211.47 223.469 1202.34 232.663 1191.2 232.663ZM1191.2 194.437C1181.6 194.437 1173.75 202.34 1173.75 212.125C1173.75 221.91 1181.55 229.813 1191.2 229.813C1200.81 229.813 1208.66 221.91 1208.66 212.125C1208.66 202.34 1200.81 194.437 1191.2 194.437Z" fill="#1A1A1A"/>
<path d="M1139.48 232.663C1128.29 232.663 1119.22 223.469 1119.22 212.125C1119.22 200.781 1128.29 191.588 1139.48 191.588C1150.68 191.588 1159.75 200.781 1159.75 212.125C1159.75 223.469 1150.62 232.663 1139.48 232.663ZM1139.48 194.437C1129.88 194.437 1122.03 202.34 1122.03 212.125C1122.03 221.91 1129.83 229.813 1139.48 229.813C1149.14 229.813 1156.94 221.91 1156.94 212.125C1156.94 202.34 1149.09 194.437 1139.48 194.437Z" fill="#1A1A1A"/>
<path d="M1172.8 206.211C1167.97 206.319 1161.29 206.372 1157.94 206.372V209.276C1158.53 209.276 1159.16 209.276 1159.91 209.276C1162.67 209.276 1166.75 209.222 1172.85 209.061L1172.8 206.211Z" fill="#1A1A1A"/>
<path d="M1224.09 209.652L1205.79 202.287L1207.07 199.491L1225.63 206.91L1224.09 209.652Z" fill="#1A1A1A"/>
<path d="M1106.75 210.835L1105.43 207.985L1123.94 199.115L1125.11 202.071L1106.75 210.835Z" fill="#1A1A1A"/>
<path d="M1163.57 139.223C1181.64 139.223 1196.3 130.052 1196.3 118.739C1196.3 107.426 1181.64 98.2554 1163.57 98.2554C1145.49 98.2554 1130.84 107.426 1130.84 118.739C1130.84 130.052 1145.49 139.223 1163.57 139.223Z" fill="#3F2820"/>
<path d="M1111.79 196.964L1140.6 196.319L1141.61 170.782L1153.33 197.125H1165C1165 197.125 1162.24 177.448 1164.15 167.394L1174.97 197.125L1221.28 194.706C1221.28 194.706 1225.53 205.19 1218.95 214.276C1218.95 214.276 1221.71 212.985 1224.04 209.598C1224.25 209.168 1224.52 208.792 1224.78 208.308C1225.05 207.824 1225.31 207.394 1225.63 206.856C1226.43 205.136 1227.01 203.093 1227.28 200.62C1227.28 200.62 1235.13 197.77 1241.17 202.878C1241.17 202.878 1251.62 131.481 1190.67 120.943C1190.67 120.943 1080.6 96.8576 1087.76 205.028C1087.76 205.028 1099.97 189.867 1108.03 214.222L1113.7 219.813L1111.79 196.964Z" fill="#3F2820"/>
</g>
<path d="M1098.94 467.342L1110.3 450.23L1110.29 447.539H1093.47V451.229H1104.81L1093.43 468.229V471H1110.58V467.342H1098.94ZM1125.34 466.214C1125.34 466.483 1125.27 466.73 1125.13 466.956C1125 467.181 1124.8 467.38 1124.53 467.552C1124.25 467.724 1123.89 467.863 1123.45 467.971C1123.02 468.067 1122.52 468.116 1121.94 468.116C1121.46 468.116 1120.98 468.067 1120.52 467.971C1120.07 467.874 1119.67 467.718 1119.31 467.503C1118.96 467.299 1118.67 467.031 1118.44 466.698C1118.22 466.354 1118.09 465.946 1118.06 465.473H1113.79C1113.79 466.182 1113.96 466.891 1114.3 467.6C1114.66 468.298 1115.17 468.921 1115.85 469.469C1116.52 470.028 1117.36 470.479 1118.36 470.823C1119.37 471.167 1120.53 471.338 1121.84 471.338C1123.03 471.338 1124.11 471.209 1125.08 470.952C1126.05 470.683 1126.87 470.312 1127.56 469.84C1128.24 469.367 1128.76 468.809 1129.12 468.164C1129.5 467.509 1129.69 466.794 1129.69 466.021C1129.69 465.183 1129.5 464.463 1129.12 463.862C1128.76 463.25 1128.25 462.729 1127.59 462.299C1126.94 461.88 1126.16 461.536 1125.26 461.268C1124.36 460.999 1123.38 460.779 1122.33 460.607C1121.59 460.5 1120.99 460.376 1120.52 460.236C1120.05 460.086 1119.68 459.919 1119.41 459.737C1119.13 459.565 1118.94 459.372 1118.83 459.157C1118.72 458.931 1118.67 458.689 1118.67 458.432C1118.67 458.174 1118.73 457.932 1118.84 457.707C1118.97 457.47 1119.16 457.266 1119.39 457.094C1119.65 456.901 1119.98 456.75 1120.39 456.643C1120.8 456.536 1121.28 456.482 1121.83 456.482C1122.47 456.482 1123.02 456.562 1123.47 456.724C1123.93 456.885 1124.3 457.1 1124.56 457.368C1124.76 457.572 1124.9 457.803 1125 458.061C1125.1 458.308 1125.15 458.577 1125.15 458.867H1129.62C1129.62 458.061 1129.45 457.314 1129.09 456.627C1128.74 455.939 1128.23 455.343 1127.56 454.838C1126.89 454.344 1126.06 453.958 1125.1 453.678C1124.13 453.388 1123.04 453.243 1121.83 453.243C1120.67 453.243 1119.62 453.388 1118.7 453.678C1117.78 453.968 1116.99 454.36 1116.35 454.854C1115.7 455.349 1115.21 455.923 1114.86 456.579C1114.52 457.234 1114.35 457.921 1114.35 458.641C1114.35 459.382 1114.52 460.038 1114.85 460.607C1115.19 461.176 1115.67 461.676 1116.27 462.105C1116.87 462.546 1117.59 462.922 1118.43 463.233C1119.27 463.534 1120.21 463.787 1121.23 463.991C1122.04 464.141 1122.7 464.292 1123.23 464.442C1123.75 464.592 1124.18 464.753 1124.5 464.925C1124.81 465.108 1125.03 465.301 1125.15 465.505C1125.27 465.709 1125.34 465.946 1125.34 466.214ZM1133.3 462.122V462.46C1133.3 463.738 1133.48 464.92 1133.85 466.005C1134.21 467.079 1134.75 468.014 1135.46 468.809C1136.16 469.604 1137.02 470.227 1138.04 470.678C1139.07 471.118 1140.24 471.338 1141.55 471.338C1142.85 471.338 1144.01 471.118 1145.03 470.678C1146.05 470.227 1146.91 469.604 1147.61 468.809C1148.31 468.014 1148.84 467.079 1149.2 466.005C1149.57 464.92 1149.75 463.738 1149.75 462.46V462.122C1149.75 460.854 1149.57 459.683 1149.2 458.609C1148.84 457.524 1148.31 456.584 1147.61 455.789C1146.9 454.994 1146.03 454.371 1145.01 453.92C1143.99 453.469 1142.83 453.243 1141.52 453.243C1140.21 453.243 1139.04 453.469 1138.02 453.92C1137.01 454.371 1136.16 454.994 1135.46 455.789C1134.75 456.584 1134.21 457.524 1133.85 458.609C1133.48 459.683 1133.3 460.854 1133.3 462.122ZM1137.78 462.46V462.122C1137.78 461.413 1137.85 460.741 1137.99 460.107C1138.13 459.474 1138.35 458.915 1138.65 458.432C1138.95 457.948 1139.34 457.567 1139.81 457.288C1140.28 457.008 1140.85 456.869 1141.52 456.869C1142.19 456.869 1142.77 457.008 1143.24 457.288C1143.71 457.567 1144.1 457.948 1144.4 458.432C1144.69 458.915 1144.91 459.474 1145.04 460.107C1145.18 460.741 1145.25 461.413 1145.25 462.122V462.46C1145.25 463.19 1145.18 463.878 1145.04 464.522C1144.91 465.156 1144.69 465.709 1144.4 466.182C1144.1 466.666 1143.71 467.047 1143.24 467.326C1142.77 467.605 1142.2 467.745 1141.55 467.745C1140.87 467.745 1140.29 467.605 1139.81 467.326C1139.34 467.047 1138.95 466.666 1138.65 466.182C1138.35 465.709 1138.13 465.156 1137.99 464.522C1137.85 463.878 1137.78 463.19 1137.78 462.46ZM1142.76 446.814L1139.74 451.31H1143.22L1147.69 446.814H1142.76ZM1158.06 471H1162.56V456.869H1168.84V453.565H1162.56V452.615C1162.56 452.099 1162.62 451.637 1162.75 451.229C1162.89 450.821 1163.1 450.477 1163.38 450.198C1163.69 449.865 1164.11 449.612 1164.64 449.44C1165.17 449.269 1165.8 449.183 1166.56 449.183C1167.25 449.183 1167.86 449.215 1168.38 449.279C1168.89 449.344 1169.35 449.419 1169.76 449.505L1170.05 445.992C1169.69 445.928 1169.33 445.869 1168.99 445.815C1168.66 445.761 1168.32 445.713 1167.99 445.67C1167.66 445.627 1167.31 445.595 1166.96 445.573C1166.62 445.541 1166.26 445.525 1165.88 445.525C1164.69 445.525 1163.61 445.681 1162.64 445.992C1161.67 446.293 1160.85 446.744 1160.18 447.346C1159.5 447.947 1158.98 448.688 1158.61 449.569C1158.25 450.45 1158.06 451.465 1158.06 452.615V453.565H1153.49V456.869H1158.06V471ZM1174.74 453.565V457.223H1179.7V467.358H1174.74V471H1188.95V467.358H1184.23V453.565H1174.74ZM1179.38 449.102C1179.38 449.446 1179.44 449.768 1179.56 450.069C1179.69 450.359 1179.87 450.606 1180.09 450.81C1180.32 451.025 1180.59 451.191 1180.9 451.31C1181.22 451.428 1181.57 451.487 1181.96 451.487C1182.76 451.487 1183.38 451.267 1183.85 450.826C1184.32 450.375 1184.55 449.8 1184.55 449.102C1184.55 448.404 1184.32 447.834 1183.85 447.394C1183.38 446.943 1182.76 446.717 1181.96 446.717C1181.57 446.717 1181.22 446.776 1180.9 446.895C1180.59 447.013 1180.32 447.174 1180.09 447.378C1179.87 447.593 1179.69 447.851 1179.56 448.151C1179.44 448.441 1179.38 448.758 1179.38 449.102Z" fill="black"/>
<path d="M1211.6 448.516L1211.6 455.132L1224.98 459.6L1226.64 460.186L1224.98 460.796L1211.6 465.337L1211.6 471.929L1233.21 462.969L1233.21 457.476L1211.6 448.516Z" fill="#3F3F3F"/>
<defs>
<clipPath id="clip0">
<rect width="271.596" height="275.266" fill="white" transform="translate(1029.04 98.2554)"/>
</clipPath>
</defs>
</svg>
