<svg width="345" height="345" viewBox="0 0 345 345" fill="none" xmlns="http://www.w3.org/2000/svg">
<circle opacity="0.4" cx="172.5" cy="172.5" r="172.5" fill="#3F3F3F"/>
<path d="M182.697 237.533H169.303C157.912 237.533 148.684 228.202 148.684 216.685V186.505C148.684 174.988 157.912 165.657 169.303 165.657H182.697C194.088 165.657 203.316 174.988 203.316 186.505V216.685C203.316 228.202 194.088 237.533 182.697 237.533Z" fill="#EDBB98"/>
<path d="M203.317 216.205V216.684C203.317 228.202 194.088 237.533 182.697 237.533H169.303C157.912 237.533 148.684 228.202 148.684 216.684V216.205C105.758 225.589 72.3244 254.489 63.3595 289.787C63.2541 290.266 120.207 289.787 176 289.787C231.793 289.787 288.799 290.266 288.641 289.787C279.676 254.489 246.242 225.589 203.317 216.205Z" fill="#29ABE2"/>
<path d="M239.806 152.109C247.974 153.904 256.582 146.121 259.032 134.725C261.481 123.33 256.846 112.637 248.677 110.842C240.509 109.047 231.902 116.829 229.452 128.225C227.003 139.62 231.638 150.313 239.806 152.109Z" fill="#F4C5A2"/>
<path d="M105.941 112.223C97.7727 114.019 93.137 124.712 95.5867 136.107C98.0363 147.503 106.644 155.285 114.812 153.49C122.98 151.695 127.616 141.002 125.166 129.607C122.716 118.211 114.109 110.428 105.941 112.223Z" fill="#F4C5A2"/>
<path d="M177.477 206.767C213.358 206.767 242.445 172.462 242.445 130.146C242.445 87.8289 213.358 53.5244 177.477 53.5244C141.595 53.5244 112.508 87.8289 112.508 130.146C112.508 172.462 141.595 206.767 177.477 206.767Z" fill="#F4C5A2"/>
<path d="M177.477 68.5074C177.477 68.5074 191.768 97.1938 224.78 99.6998C224.78 99.6998 234.219 119.908 229.157 130.092L240.6 111.963C240.6 111.963 250.672 109.244 256.368 116.442C256.368 116.442 269.973 54.6975 227.258 30.3834C227.258 30.3834 234.799 25.318 235.854 25.318C236.909 25.318 224.411 26.0645 220.456 28.1973V17L212.915 26.4377C212.915 26.4377 167.774 0.737305 115.725 35.9287C115.725 35.9287 79.6021 65.6814 97.11 119.908C97.11 119.908 102.805 107.538 113.932 114.363C113.932 114.363 120.155 126.787 125.639 132.865C125.639 132.865 117.835 103.006 132.547 84.8768C132.547 84.8768 134.182 97.727 141.987 99.7531C141.987 99.7531 137.452 89.4623 143.991 74.9592C143.991 74.9592 149.212 103.326 172.678 103.752C172.784 103.699 156.436 79.4381 177.477 68.5074Z" fill="#3F2820"/>
</svg>
